<svg version="1.1" id="Layer_1" xmlns="http://www.w3.org/2000/svg" xmlns:xlink="http://www.w3.org/1999/xlink" x="0px" y="0px"
	 viewBox="0 0 92 93" enable-background="new 0 0 92 93" xml:space="preserve">
<g id="_x23_ffffffff">
	<path d="M44.8,0H47c5.5,0.8,11,1.6,16.1,3.8c11.7,4.8,21.2,14.7,25.6,26.5c1.9,4.9,2.5,10.1,3.3,15.2v1.8
		c-0.7,5.2-1.4,10.5-3.3,15.4c-4.8,13-15.8,23.6-29,27.8c-4.1,1.3-8.3,1.8-12.5,2.5H45c-5-0.8-10.1-1.4-14.9-3.3
		c-14.3-5.3-25.4-18.1-28.6-33c-0.6-3.1-1.1-6.2-1.5-9.2v-1.8c0.7-5.2,1.4-10.5,3.3-15.4C7.6,18.6,16.8,8.9,28.1,4.1
		C33.4,1.7,39.1,0.9,44.8,0 M43.7,22.5c-7.6,7.4-15.1,15-22.8,22.4c-1,0.9-1.7,2-2.4,3.1c0.5,2.4,3.6,4.1,5.5,2
		c7.4-7.2,14.7-14.4,22.1-21.7c7.6,7.3,15,14.9,22.6,22.2c2.5,1.7,6.2-1.7,4-4.1c-8-8.1-16.2-16-24.3-24
		C47.2,20.9,44.8,21,43.7,22.5 M54.3,21.5c0,1.2,0,2.4,0,3.6c2.5,2.4,4.9,4.8,7.3,7.3c0.1-3.6,0-7.3,0.1-10.9
		C59.3,20.7,56.7,20.6,54.3,21.5 M26.2,51.1c0.1,5.3-0.1,10.5,0.1,15.8c-0.1,1.4,1.2,2.7,2.6,2.6c4.2,0.1,8.4,0,12.7,0
		c-0.1-5,0-10-0.1-15c3-0.8,6.2-0.8,9.3,0c-0.1,5,0,10.1-0.1,15.1c4.5-0.1,9,0.2,13.4-0.1c1.4-0.1,2.3-1.7,2.1-3c0-5,0-10.1,0-15.1
		C59.5,44.7,52.8,38,46.1,31.5C39.5,38.1,32.8,44.5,26.2,51.1z"/>
</g>
</svg>
