<svg version="1.1" id="Layer_1" xmlns="http://www.w3.org/2000/svg" xmlns:xlink="http://www.w3.org/1999/xlink" x="0px" y="0px"
	 viewBox="0 0 416 416" enable-background="new 0 0 416 416" xml:space="preserve">
<g id="_x23_ffffffff">
</g>
<g id="_x23_38a9e1ff">
	<path d="M203.3,0h10.3C243.9,1.1,274,8.3,301,22c33.1,16.5,61.6,42.2,81.7,73.2c20.9,32.1,32.3,70,33.3,108.2v8.3
		c-0.4,13.9-2,27.8-4.9,41.4c-1.8,9.9-6.1,19.1-9.3,28.6c-2.8,8.2-6.6,16-10.1,23.9C370.5,345.5,336,378.1,295,397
		c-24.6,11.5-51.5,17.6-78.6,19h-14.1c-27.8-0.9-55.4-7.1-80.6-18.7c-33.8-15.4-63.3-40-84.5-70.5C13.9,293.5,0.9,253.3,0,212.7
		v-10.4c0.9-24.4,5.6-48.8,14.8-71.5c17.1-43,49-79.8,89.1-102.8C134,10.4,168.6,0.9,203.3,0 M114.3,96.5c0,34.2-0.1,68.5,0,102.7
		c-7.7,0.2-15.5-0.3-23.2,0.2c-9.2,0.9-16.9,9.3-16.9,18.6c-0.1,20.3,0,40.7,0,61c-0.2,8.4,4.6,16.9,12.2,20.6
		c0.8,0.5,2.3,0.3,2.4,1.5c0.2-0.1,0.7-0.3,1-0.4c1.6,0.7,3.4,1,5.2,1c6.5,0,12.9,0,19.4,0c-0.1,6,0,11.9,0,17.9
		c62.5,0,124.9,0,187.4,0c0-5.9,0-11.9,0-17.9c6.1,0,12.3,0,18.4,0c5.7,0.1,11.5-2,15.3-6.4c5.3-6.4,7.7-15.1,6.6-23.3
		c-0.4-18.4,0.1-36.8-0.2-55.1c-0.5-9.2-8.6-16.9-17.7-17.6c-7.5-0.3-14.9,0-22.4-0.1c0-34.3,0-68.5,0-102.8
		C239.2,96.5,176.8,96.5,114.3,96.5z"/>
	<path d="M127.9,105.6c53.4,0.1,106.8,0,160.2,0c0,31.2,0,62.4,0,93.6c-53.4,0-106.8,0-160.2,0
		C127.9,168,127.9,136.8,127.9,105.6z"/>
	<path d="M92.2,208.3c6.2-1.8,12.8,3.4,13,9.7c0.1,5.8-5.2,11.2-11.1,10.4c-6.4,0-11.3-7.4-9-13.3
		C86.1,211.8,89,209.3,92.2,208.3z"/>
	<path d="M123.2,208.3c6.1-1.7,12.7,3.5,12.8,9.7c0.1,3.6-1.9,7.2-5,9.1c-5.5,3.4-13.8,0.4-15.2-6.1
		C114.3,215.6,117.8,209.6,123.2,208.3z"/>
	<path d="M128,279.4c53.3,0.1,106.7,0.2,160,0c0,10.4,0,20.8,0.1,31.1c-53.4-0.1-106.8,0-160.2,0
		C128,300.1,127.7,289.7,128,279.4z"/>
</g>
</svg>
