<svg version="1.1" id="Layer_1" xmlns="http://www.w3.org/2000/svg" xmlns:xlink="http://www.w3.org/1999/xlink" x="0px" y="0px"
	 viewBox="0 0 242 242" enable-background="new 0 0 242 242" xml:space="preserve">
<g id="_x23_f6f6f6ff">
</g>
<g id="_x23_314252ff">
	<path d="M101.4,1.7c9.1-1.5,18.4-0.5,27.5-0.9c9.5-0.1,18.7,2.3,27.8,4.7c24.1,7.6,45.7,22.7,60.8,43
		c10.6,14.3,18.2,30.9,21.7,48.4c2.8,10.5,1.7,21.4,2,32.2c-1.6,34.7-20.1,67.8-47.8,88.5c-18.9,14-41.9,23.1-65.5,23.8
		c-7.3-0.3-14.7,0.4-22-0.5c-31.3-3.9-60.9-20.5-80.2-45.6C14.9,181.3,7.3,165,3.2,148c-3-12.4-2.5-25.3-2.4-37.9
		c2.7-35.3,22.5-68.6,51.6-88.5C67.1,11.5,83.9,4.3,101.4,1.7 M136.6,52.6c-7.2,7.1-14.4,14.3-21.5,21.5c-5.9,5.9-8.6,14.7-7.4,22.9
		c0.6,3.6,1.4,7.6,4.2,10.3c4.3-3.8,8.1-8.1,12.3-12.1c2.5-2.1,1.4-6,3.8-8.2c7.1-7,14.1-14,21-21c3.3-4.1,10.3-3.8,13.7,0.1
		c4.6,5,9.8,9.6,14.4,14.7c2.2,2.2,1.7,5.8,1.2,8.6c-1.3,2.3-3.2,4.1-5,5.9c-6.2,6.2-12.5,12.2-18.5,18.6c-2.1,2.5-6.1,1.3-8.2,3.8
		c-4,4.2-8.3,8-12.1,12.4c3,3,7.4,3.7,11.4,4.2c8.2,1,16.5-2.2,22.4-8c6-6,12-12,18-18c3-3.1,6.1-6.2,7.9-10.1
		c3.3-6.4,3.6-14.1,1.4-20.9c-2.6-7.9-9.3-13.3-14.9-19.1c-5.4-5.7-11.7-11.7-19.8-12.9C152.2,43.4,142.9,46.5,136.6,52.6
		 M138.4,88.6c-1.2,0.2-2.1,1.1-2.9,1.9c-15,15-30,30-45,45c-2.5,2.3-2.3,6-1.8,9.1c1.9,3,4.6,5.4,7.3,7.6c3.2,2.6,8.3,1.9,10.9-1.1
		c14.7-14.6,29.5-29.2,44.1-44c2.8-2.5,3.5-6.7,2-10c-2.3-3.2-5.2-6.1-8.5-8.3C142.5,88.2,140.4,88.2,138.4,88.6 M73.6,115.6
		c-7,7-14,14-21,21c-6.4,6.4-9.1,16.2-7.1,25c1.3,7.1,6.3,12.7,11.3,17.6c4.7,4.6,9.1,9.6,14.5,13.5c6.3,4.4,14.7,5.2,22.1,3.5
		c5.5-1.4,10.1-4.9,14-8.8c6.5-6.6,13.1-12.9,19.5-19.5c8.5-8.6,10.5-23.3,3.3-33.2c-4.2,3.6-7.9,7.8-11.9,11.6
		c-2.7,2.1-1.8,6.3-4.4,8.5c-6,6.4-12.3,12.4-18.4,18.6c-2.6,2.5-5.3,5.9-9.3,5.4c-3.7,0.4-6.3-2.7-8.7-5
		c-3.9-4.1-8.1-7.9-11.9-12.2c-3.3-3.4-2.8-9.4,0.7-12.4c7-7,14-14,21-21c2.3-2.5,6.5-1.6,8.6-4.4c3.8-4,7.9-7.7,11.6-11.8
		c-3.7-3.7-9.4-4.3-14.4-4.4C85.7,107.2,78.7,110.4,73.6,115.6z"/>
</g>
</svg>
