<svg version="1.1" id="Layer_1" xmlns="http://www.w3.org/2000/svg" xmlns:xlink="http://www.w3.org/1999/xlink" x="0px" y="0px"
	 viewBox="0 0 92 91" enable-background="new 0 0 92 91" xml:space="preserve">
<g id="_x23_ffffffff">
	<path d="M37.3,1.4c10.1-2.1,20.8-0.3,29.9,4.4C79.4,12.2,88.4,24.4,90.6,38c2.1,11.4-0.8,23.6-7.5,33
		C76.2,80.9,65,87.8,53,89.6C38.8,92,23.5,87,13.4,76.6C3,66.2-1.8,50.3,1.6,35.9C5.1,18.6,20,4.4,37.3,1.4 M19.2,25.5
		c9,6.7,17.9,13.6,26.9,20.4c9.1-6.7,17.8-13.8,27.1-20.3C55.1,25.4,37.2,25.5,19.2,25.5 M18.9,31.1c0,9.3,0,18.5,0,27.7
		c5.4-5.2,10.6-10.5,15.9-15.8C29.4,39.2,24.2,35.1,18.9,31.1 M57.4,43.1c5.2,5.3,10.6,10.5,15.9,15.8c0-9.3,0-18.5,0-27.8
		C68,35.2,62.7,39.2,57.4,43.1 M19,65.2c18.1,0.1,36.1,0,54.2,0c-6.5-6.4-13-12.7-19.4-19.2c-2.7,1.8-5.1,3.8-7.7,5.7
		c-2.5-1.9-5-3.8-7.4-5.7C32,52.3,25.7,59,19,65.2z"/>
</g>
</svg>
