<svg version="1.1" id="Layer_1" xmlns="http://www.w3.org/2000/svg" xmlns:xlink="http://www.w3.org/1999/xlink" x="0px" y="0px"
	 viewBox="0 0 92 91" enable-background="new 0 0 92 91" xml:space="preserve">
<g id="_x23_ffffffff">
	<path d="M44.6,0h1.9c13.2,0.8,26.4,6.4,34.8,16.8c6.6,7.7,9.8,17.7,10.8,27.6v1.9C91.1,59.2,85.4,72,75.2,80.2
		c-7.8,6.7-17.9,9.8-28,10.8H45c-12.8-1-25.5-6.3-33.8-16.3C4.3,67,0.9,56.8,0,46.6v-2c0.9-10.7,4.7-21.4,12.2-29.4
		C20.4,6,32.4,1.1,44.6,0 M42.3,24c0.4,0.5,1.2,1.6,1.6,2.1c3.2,0.5,6.6,0.6,9.5,2.1c6.6,2.9,11.1,9.7,11.3,16.9
		c-0.6,3.1,4.4,3.8,4.9,0.9C70.4,33.1,58.7,21.5,46,21.5C44.1,21,43.2,22.7,42.3,24 M26.5,25.6c-5.3,0.7-7.3,6.7-6.1,11.4
		c2,8.6,7.4,16,13.7,22c5.9,5.5,13,10.1,21,11.6c3.9,0.5,9-1,10-5.3c0.5-2.4,2.8-5.5,0.1-7.3c-3.1-2.6-7.3-4.1-11.3-4
		c-2.7,0.3-2.7,5.4-5.9,3.6c-4.2-3.1-7.8-7-11.4-10.7c-1.4-1.6-3.5-3.1-3.4-5.5c0.8-1.8,3.9-1.8,3.8-4.1c0.2-4.2-1.5-8.4-4.3-11.5
		C30.9,23.5,28.4,25.3,26.5,25.6 M42.4,31.4c-2,1.2-0.8,4.7,1.6,4.3c5.2,0.2,10.4,3.9,11,9.3c0.2,1.9,0.5,4.6,3.2,4.3
		c2.5-0.7,2.3-3.6,1.8-5.6c-1.2-6.5-6.8-11.7-13.2-12.6C45.3,30.9,43.6,30.3,42.4,31.4z"/>
</g>
</svg>
